<?xml version="1.0" standalone="no"?>
<!DOCTYPE svg PUBLIC "-//W3C//DTD SVG 20010904//EN"
 "http://www.w3.org/TR/2001/REC-SVG-20010904/DTD/svg10.dtd">
<svg version="1.0" xmlns="http://www.w3.org/2000/svg"
 width="313.000000pt" height="313.000000pt" viewBox="0 0 313.000000 313.000000"
 preserveAspectRatio="xMidYMid meet">
<metadata>
Created by potrace 1.14, written by Peter Selinger 2001-2017
</metadata>
<g transform="translate(0.000000,313.000000) scale(0.100000,-0.100000)"
fill="#000000" stroke="none">
<path d="M1180 2482 c-519 -1 -737 -5 -745 -13 -7 -8 97 -10 385 -6 239 3 402
1 412 -4 10 -5 18 -6 18 -2 0 5 84 9 187 11 144 2 188 0 195 -10 8 -10 11 -10
15 0 3 8 29 12 78 12 50 0 75 -4 78 -12 3 -10 7 -10 18 -2 16 14 669 25 669
12 0 -4 7 -8 15 -8 8 0 15 4 15 10 0 6 114 11 308 13 169 1 33 2 -303 2 -335
0 -941 -1 -1345 -3z"/>
<path d="M121 2464 c-17 -20 -6 -31 15 -14 13 11 17 11 24 1 5 -9 10 -10 14
-2 4 6 16 11 27 11 11 0 17 -4 14 -10 -4 -6 6 -10 24 -10 23 0 29 4 25 15 -5
11 -2 13 10 9 9 -3 16 -10 16 -15 0 -5 16 -9 35 -9 19 0 35 5 35 10 0 6 -16
10 -35 10 -19 0 -35 5 -35 10 0 17 -153 12 -169 -6z"/>
<path d="M7 2463 c7 -2 19 -2 26 0 6 3 1 5 -13 5 -14 0 -19 -2 -13 -5z"/>
<path d="M2990 2451 c0 -15 -7 -19 -35 -19 -23 0 -35 5 -35 14 0 18 -10 18
-24 0 -6 -7 -37 -16 -68 -20 -53 -6 -58 -5 -58 14 0 22 -16 27 -22 8 -3 -8
-27 -12 -71 -12 -42 1 -64 -3 -60 -9 4 -6 -3 -8 -18 -4 -48 13 -182 20 -176
10 6 -9 -63 -23 -116 -23 -32 0 -7 20 26 21 31 2 31 2 4 6 -15 3 -25 9 -21 15
4 5 -5 2 -20 -7 -20 -14 -52 -18 -140 -20 -62 -1 -118 -5 -124 -9 -6 -3 -13
-2 -17 4 -8 13 -145 13 -145 0 0 -5 -17 -10 -37 -9 -34 1 -35 2 -13 9 29 9 13
13 -50 10 -25 -1 -46 -6 -48 -11 -5 -13 -32 -11 -32 2 0 8 -42 10 -135 7 -74
-1 -135 -5 -135 -8 0 -3 -57 -5 -127 -6 -71 0 -178 -2 -240 -4 -61 -1 -116 1
-122 4 -6 4 -16 4 -23 0 -20 -13 -456 -9 -471 4 -8 7 -17 9 -21 5 -4 -4 3 -12
15 -19 l22 -11 -21 -21 c-17 -17 -18 -21 -5 -26 25 -10 30 -7 26 18 l-5 24
584 6 c320 3 853 9 1183 13 330 3 668 6 750 7 83 0 134 3 115 7 -19 3 -27 7
-18 8 18 1 14 31 -4 31 -5 0 -6 -5 -3 -10 8 -14 -21 -24 -42 -15 -16 6 -15 8
5 16 29 11 28 19 -3 19 -18 0 -25 -5 -25 -19z m-1372 -38 c-15 -2 -42 -2 -60
0 -18 2 -6 4 27 4 33 0 48 -2 33 -4z"/>
<path d="M2623 2453 c9 -2 23 -2 30 0 6 3 -1 5 -18 5 -16 0 -22 -2 -12 -5z"/>
<path d="M58 2443 c6 -2 18 -2 25 0 6 3 1 5 -13 5 -14 0 -19 -2 -12 -5z"/>
<path d="M47 2418 c-7 -4 71 -8 172 -8 101 0 182 2 179 5 -8 8 -339 11 -351 3z"/>
<path d="M1388 2423 c7 -3 16 -2 19 1 4 3 -2 6 -13 5 -11 0 -14 -3 -6 -6z"/>
<path d="M7 2406 c-3 -8 1 -17 9 -20 9 -4 14 1 14 14 0 23 -15 27 -23 6z"/>
<path d="M2776 2372 c-3 -5 1 -18 9 -28 14 -18 14 -18 10 5 -5 28 -11 36 -19
23z"/>
<path d="M2808 2373 c7 -3 16 -2 19 1 4 3 -2 6 -13 5 -11 0 -14 -3 -6 -6z"/>
<path d="M26 2355 c-3 -9 0 -15 9 -15 9 0 12 6 9 15 -4 8 -7 15 -9 15 -2 0 -5
-7 -9 -15z"/>
<path d="M1748 2353 c7 -3 16 -2 19 1 4 3 -2 6 -13 5 -11 0 -14 -3 -6 -6z"/>
<path d="M1788 2353 c7 -3 16 -2 19 1 4 3 -2 6 -13 5 -11 0 -14 -3 -6 -6z"/>
<path d="M1933 2353 c9 -2 25 -2 35 0 9 3 1 5 -18 5 -19 0 -27 -2 -17 -5z"/>
<path d="M1998 2353 c6 -2 18 -2 25 0 6 3 1 5 -13 5 -14 0 -19 -2 -12 -5z"/>
<path d="M2083 2353 c9 -2 25 -2 35 0 9 3 1 5 -18 5 -19 0 -27 -2 -17 -5z"/>
<path d="M2168 2353 c6 -2 18 -2 25 0 6 3 1 5 -13 5 -14 0 -19 -2 -12 -5z"/>
<path d="M2278 2353 c7 -3 16 -2 19 1 4 3 -2 6 -13 5 -11 0 -14 -3 -6 -6z"/>
<path d="M1383 2320 c-39 -16 -57 -70 -23 -70 16 0 20 -7 20 -30 0 -29 2 -30
45 -30 40 0 47 3 57 28 6 15 10 36 10 46 -2 42 -65 74 -109 56z"/>
<path d="M1598 2319 c-21 -8 -48 -50 -48 -75 0 -1 9 0 21 3 15 4 22 0 26 -16
4 -17 13 -21 47 -21 37 0 43 3 53 30 10 27 9 34 -10 55 -27 29 -54 36 -89 24z"/>
<path d="M1803 2318 c-12 -6 -26 -23 -32 -39 -8 -25 -7 -28 12 -31 16 -2 23
-11 25 -30 3 -21 9 -28 25 -28 12 0 32 -3 43 -6 18 -5 22 -1 26 28 3 18 8 40
12 49 17 39 -63 81 -111 57z"/>
<path d="M2005 2305 c-30 -29 -31 -42 -5 -50 14 -4 20 -15 20 -36 0 -19 5 -29
15 -29 9 0 20 -12 26 -27 10 -27 26 -43 42 -43 5 0 7 19 4 43 -3 25 1 56 9 76
18 42 11 64 -22 79 -38 18 -62 14 -89 -13z"/>
<path d="M2220 2310 c-26 -26 -25 -46 1 -60 16 -9 19 -18 15 -36 -5 -19 -2
-24 11 -24 13 0 24 -18 39 -68 l22 -67 1 75 c1 54 7 87 20 114 l20 38 -24 24
c-30 30 -77 32 -105 4z"/>
<path d="M2438 2318 c-27 -22 -32 -55 -8 -61 15 -4 20 -13 20 -36 0 -21 5 -31
15 -31 8 0 15 -8 15 -17 0 -10 9 -36 19 -58 l19 -40 1 76 c1 61 5 82 22 102
15 20 18 31 10 46 -18 32 -82 43 -113 19z"/>
<path d="M2645 2305 c-30 -29 -31 -41 -5 -48 15 -4 20 -14 20 -36 0 -18 5 -31
13 -31 6 0 21 -28 32 -63 l20 -62 5 87 c4 73 9 90 28 111 l23 25 -27 21 c-36
28 -79 27 -109 -4z"/>
<path d="M3097 2312 c-21 -24 -22 -48 -1 -56 11 -4 15 -14 12 -31 -4 -17 -1
-25 8 -25 10 0 14 17 14 65 0 68 -6 77 -33 47z"/>
<path d="M0 2250 c0 -51 4 -69 15 -74 10 -3 16 -21 17 -48 1 -30 3 -22 7 27 9
105 3 152 -20 158 -17 5 -19 -1 -19 -63z"/>
<path d="M512 2303 c-22 -19 -42 -71 -23 -59 6 4 20 2 32 -4 15 -9 20 -19 16
-36 -3 -20 -1 -23 14 -19 14 5 24 -5 43 -44 14 -27 29 -52 34 -55 13 -8 14
154 2 184 -19 47 -82 64 -118 33z"/>
<path d="M723 2305 c-11 -8 -23 -25 -25 -37 -4 -20 0 -23 21 -23 21 0 27 -5
29 -27 2 -16 9 -28 18 -28 7 0 29 -30 48 -67 l35 -68 1 108 c0 102 -1 109 -25
132 -27 28 -70 32 -102 10z"/>
<path d="M930 2300 c-26 -26 -25 -48 3 -52 16 -2 23 -11 25 -30 2 -18 9 -28
20 -28 11 -1 28 -25 49 -68 l31 -67 1 111 c1 98 -1 113 -19 132 -27 29 -83 29
-110 2z"/>
<path d="M1148 2303 c-29 -34 -30 -53 -3 -53 21 0 25 -5 25 -30 0 -23 4 -30
20 -30 13 0 22 -9 26 -25 6 -25 20 -31 40 -17 6 4 14 32 17 63 6 48 4 60 -14
83 -25 32 -87 37 -111 9z"/>
<path d="M2792 2275 c0 -16 2 -22 5 -12 2 9 2 23 0 30 -3 6 -5 -1 -5 -18z"/>
<path d="M3053 2125 c0 -22 2 -30 4 -17 2 12 2 30 0 40 -3 9 -5 -1 -4 -23z"/>
<path d="M2793 2100 c0 -30 2 -43 4 -27 2 15 2 39 0 55 -2 15 -4 2 -4 -28z"/>
<path d="M1457 2106 c-167 -30 -329 -96 -482 -197 -100 -66 -287 -252 -342
-341 -37 -60 -39 -67 -22 -71 19 -5 28 8 9 15 -11 3 56 108 70 108 4 0 10 7
12 15 2 11 7 12 18 4 11 -8 12 -12 3 -16 -7 -2 -13 -11 -13 -19 0 -8 -4 -14
-10 -14 -5 0 -10 -6 -10 -14 0 -8 -18 -48 -40 -89 -76 -145 -126 -311 -134
-452 -4 -66 -4 -71 3 -30 17 99 22 121 46 210 28 101 97 251 147 319 40 55 58
61 22 9 -28 -40 -74 -128 -74 -139 0 -4 25 35 56 87 71 119 83 132 101 118 19
-16 17 -25 -18 -75 -47 -69 -115 -220 -137 -304 -24 -90 -35 -161 -23 -141 9
14 13 -22 26 -224 3 -52 1 -73 -5 -60 -8 18 -9 17 -9 -7 -1 -34 16 -39 59 -16
39 20 60 23 60 8 0 -5 -6 -10 -14 -10 -8 0 -18 -4 -21 -10 -4 -6 9 -10 31 -10
34 0 36 2 32 28 -3 15 -2 38 2 52 5 16 8 19 9 8 1 -18 21 -23 69 -19 12 1 22
-3 22 -9 0 -5 -12 -11 -27 -12 -16 0 -34 -2 -42 -2 -8 -1 -15 -9 -17 -19 -2
-17 4 -18 54 -15 54 3 57 2 56 -20 l-1 -23 24 25 c27 29 30 46 7 46 -24 0 -10
25 16 28 21 3 22 2 11 -12 -9 -10 -9 -16 -3 -16 15 0 3 -31 -17 -47 -9 -7 -14
-13 -11 -13 50 -11 50 -11 52 28 0 20 1 43 1 49 -1 7 3 10 8 7 5 -3 9 -13 9
-22 0 -15 2 -15 10 -2 8 12 10 9 7 -12 -1 -15 -6 -30 -10 -34 -12 -12 -8 -24
8 -24 9 0 12 6 9 15 -5 11 0 14 20 13 28 -3 37 -18 10 -18 -10 0 -14 -6 -10
-15 4 -10 -1 -15 -17 -16 -20 -1 -20 -2 -2 -6 32 -8 37 -19 8 -18 -16 0 -29 7
-34 20 -6 16 -8 14 -8 -12 -1 -18 -4 -33 -8 -33 -5 0 -13 -11 -20 -25 l-11
-25 104 0 c105 0 136 12 67 25 -50 9 -55 13 -43 36 6 10 7 19 2 19 -4 0 -8 9
-8 20 0 11 4 20 9 20 6 0 7 19 4 41 -6 45 9 74 29 55 6 -6 9 -18 6 -28 -3 -12
1 -18 12 -18 14 0 15 -2 4 -14 -7 -8 -14 -10 -16 -5 -7 18 -20 8 -15 -11 3
-11 9 -20 13 -20 5 0 15 -3 24 -6 12 -5 16 0 16 17 0 18 2 21 13 10 10 -10 8
-16 -10 -31 -13 -10 -23 -23 -23 -29 0 -5 -5 -13 -11 -17 -8 -4 -9 1 -4 16 5
15 4 20 -4 16 -13 -9 -15 -43 -2 -50 5 -3 12 1 15 10 3 8 10 12 16 9 5 -3 10
1 10 9 0 9 5 16 10 16 6 0 10 -20 10 -45 l0 -45 513 1 c281 1 499 5 482 9 -24
6 -16 8 33 9 39 1 61 5 57 11 -3 6 1 7 9 4 9 -4 18 1 22 10 8 20 28 20 49 0
21 -21 68 -20 136 4 61 22 158 38 282 48 l77 6 0 32 c0 18 -5 37 -11 43 -8 8
-8 13 0 17 6 4 11 16 11 27 0 11 -4 17 -10 14 -5 -3 -10 3 -10 14 0 10 4 21 8
23 5 2 12 22 15 44 7 40 6 42 -21 42 -50 0 -65 -15 -58 -59 4 -23 2 -39 -4
-39 -6 0 -6 -9 -1 -22 5 -13 14 -23 21 -23 7 0 15 -5 17 -11 5 -16 -37 -10
-48 7 -7 11 -9 9 -9 -8 0 -12 6 -24 13 -27 9 -3 8 -8 -4 -18 -9 -7 -19 -22
-22 -33 -4 -11 -4 27 -1 85 3 61 11 117 20 134 16 33 18 76 5 120 -5 17 -17
72 -25 121 -31 175 -42 193 -95 156 -35 -25 -41 -26 -41 -6 0 20 -27 19 -48
-2 -16 -16 -17 -15 -20 4 -2 12 -10 24 -18 27 -23 9 -64 -4 -64 -20 0 -16 -47
-19 -52 -4 -5 15 -130 22 -163 10 -23 -9 -26 -8 -21 5 4 10 -1 15 -14 15 -11
0 -20 -7 -20 -15 0 -8 -3 -15 -7 -15 -16 0 -73 25 -73 32 0 4 -9 8 -20 8 -10
0 -23 6 -27 13 -4 8 -16 16 -25 20 -10 3 -18 13 -18 21 0 7 -12 21 -26 31 -24
15 -28 15 -61 0 -25 -12 -38 -14 -46 -6 -14 14 -67 14 -67 1 0 -11 -36 -10
-55 1 -5 4 -27 9 -47 13 -21 4 -38 13 -38 19 0 25 -21 37 -42 24 -15 -10 -21
-9 -28 3 -6 10 -10 11 -10 3 0 -16 -34 -17 -63 -2 -16 9 -22 9 -25 0 -2 -6 -8
-11 -13 -11 -6 0 -7 5 -4 10 3 6 -1 10 -10 10 -9 0 -13 -5 -9 -11 4 -8 -1 -9
-16 -4 -19 6 -21 4 -15 -14 4 -12 2 -21 -4 -21 -6 0 -11 8 -11 18 0 17 -21 32
-63 46 -15 5 -17 2 -12 -17 3 -12 3 -17 -2 -11 -15 19 -39 22 -64 7 -13 -8
-16 -12 -7 -9 10 3 20 1 23 -5 4 -5 3 -9 -2 -8 -4 1 -10 1 -13 -1 -3 -1 -17
-3 -32 -5 -22 -3 -28 1 -33 25 -6 26 -28 46 -47 42 -4 -1 -12 7 -18 18 -8 14
-20 20 -39 18 -16 -1 -36 4 -44 10 -8 7 -17 9 -19 5 -5 -13 -98 -42 -98 -31 0
6 -7 5 -15 -2 -13 -11 -15 -8 -16 16 -1 17 -3 22 -6 11 -2 -9 -9 -14 -15 -11
-6 4 -5 -3 2 -16 6 -12 9 -24 6 -28 -3 -3 -6 0 -6 6 0 7 -5 12 -11 12 -5 0 -7
-4 -4 -10 3 -5 -1 -10 -9 -10 -9 0 -19 0 -23 0 -5 0 -8 12 -8 27 -1 19 12 42
40 73 226 251 499 394 802 419 54 5 103 7 108 6 23 -7 138 -15 132 -9 -32 32
-353 52 -480 30z m-717 -430 c0 -2 -8 -10 -17 -17 -16 -13 -17 -12 -4 4 13 16
21 21 21 13z m1173 -333 c-7 -2 -19 -2 -25 0 -7 3 -2 5 12 5 14 0 19 -2 13 -5z
m46 -27 c9 -11 8 -15 -5 -20 -9 -4 -19 -4 -22 -1 -3 3 0 5 8 5 10 0 10 3 0 15
-7 8 -8 15 -2 15 5 0 15 -6 21 -14z m122 -14 c-7 -2 -18 1 -23 6 -8 8 -4 9 13
5 13 -4 18 -8 10 -11z m-27 -7 c18 -13 18 -14 -3 -12 -11 1 -21 5 -21 10 0 4
-4 5 -10 2 -5 -3 -18 -1 -27 4 -15 9 -13 10 12 10 17 0 38 -6 49 -14z m-287
-1 c-3 -3 -12 -4 -19 -1 -8 3 -5 6 6 6 11 1 17 -2 13 -5z m338 -14 c-10 -11
-21 -18 -23 -15 -3 3 3 12 14 20 27 20 30 18 9 -5z m88 4 c-8 -21 23 -45 45
-36 16 5 16 5 0 -11 -9 -9 -18 -21 -20 -27 -2 -6 -14 -6 -33 -1 -16 5 -25 10
-18 10 20 2 19 35 -2 54 -15 12 -16 16 -4 11 10 -3 20 -1 24 5 10 17 15 13 8
-5z m-203 -24 c-20 -13 -33 -13 -25 0 3 6 14 10 23 10 15 0 15 -2 2 -10z m334
-20 c-6 -6 -15 -5 -24 1 -13 9 -12 10 3 5 9 -3 17 0 17 6 0 6 3 8 7 5 4 -4 2
-12 -3 -17z m-713 -13 c-10 -9 -11 -8 -5 6 3 10 9 15 12 12 3 -3 0 -11 -7 -18z
m654 -6 c-3 -12 -10 -21 -15 -21 -4 0 -3 11 3 24 14 29 22 27 12 -3z m-385
-16 c0 -5 -5 -3 -10 5 -5 8 -10 20 -10 25 0 6 5 3 10 -5 5 -8 10 -19 10 -25z
m50 32 c0 -2 -10 -12 -21 -23 -22 -19 -22 -19 -10 4 10 18 31 31 31 19z m37
-3 c-3 -3 -12 -4 -19 -1 -8 3 -5 6 6 6 11 1 17 -2 13 -5z m99 -23 c-2 -21 0
-28 10 -24 8 3 14 0 14 -6 0 -6 -14 -11 -31 -11 -29 0 -29 1 -13 17 16 16 15
18 -15 25 -17 5 -31 11 -31 13 0 3 11 3 25 -1 15 -4 25 -2 25 5 0 6 4 11 10
11 5 0 8 -13 6 -29z m243 5 c9 -11 6 -13 -14 -13 -25 0 -31 7 -18 20 10 10 19
8 32 -7z m-192 -2 c-3 -3 -12 -4 -19 -1 -8 3 -5 6 6 6 11 1 17 -2 13 -5z m-99
-25 c-7 -5 -24 -9 -37 -9 -19 0 -21 3 -12 14 6 8 22 11 37 8 19 -3 22 -7 12
-13z m382 17 c0 -3 -4 -8 -10 -11 -5 -3 -10 -1 -10 4 0 6 5 11 10 11 6 0 10
-2 10 -4z m-570 -26 c8 -5 11 -10 5 -10 -5 0 -17 5 -25 10 -8 5 -10 10 -5 10
6 0 17 -5 25 -10z m-280 -15 c-7 -8 -18 -15 -24 -15 -6 0 -2 7 8 15 25 19 32
19 16 0z m798 4 c-25 -14 -22 -29 5 -29 12 0 31 -7 41 -15 11 -8 15 -15 9 -15
-7 0 -15 5 -18 10 -4 6 -15 8 -25 5 -10 -3 -25 1 -34 10 -26 26 -18 45 18 45
19 -1 19 -2 4 -11z m187 -27 c-3 -4 -10 0 -15 8 -6 9 -5 17 3 22 13 8 24 -19
12 -30z m-595 8 c0 -11 -2 -20 -4 -20 -2 0 -6 9 -9 20 -3 11 -1 20 4 20 5 0 9
-9 9 -20z m-109 -13 c-10 -9 -11 -8 -5 6 3 10 9 15 12 12 3 -3 0 -11 -7 -18z
m305 16 c-10 -11 -37 -12 -30 -2 3 5 12 9 21 9 9 0 13 -3 9 -7z m-739 -39 c-3
-3 -12 -4 -19 -1 -8 3 -5 6 6 6 11 1 17 -2 13 -5z m193 2 c0 -3 -4 -8 -10 -11
-5 -3 -10 -1 -10 4 0 6 5 11 10 11 6 0 10 -2 10 -4z m297 -28 c-3 -7 -5 -2 -5
12 0 14 2 19 5 13 2 -7 2 -19 0 -25z m-617 -16 c-8 -3 -22 -10 -30 -16 -8 -6
-7 -1 4 11 10 13 23 20 29 16 7 -4 6 -8 -3 -11z m113 11 c3 -5 -14 -8 -38 -8
-24 0 -38 3 -32 7 16 10 65 10 70 1z m614 -31 c8 -14 7 -23 -4 -37 -15 -19
-15 -19 -9 2 5 15 1 25 -14 36 -11 7 -17 16 -14 20 9 9 28 -1 41 -21z m468 19
c-6 -5 -20 -11 -33 -13 -28 -4 -30 -22 -2 -26 11 -2 20 -7 20 -11 0 -5 -11 -6
-25 -3 -14 2 -25 8 -25 13 0 5 -6 9 -14 9 -8 0 -18 4 -21 10 -3 6 1 7 10 4 8
-4 21 -2 28 4 6 5 21 12 32 15 34 8 40 8 30 -2z m30 -11 c-3 -5 2 -10 12 -11
14 0 15 -2 3 -6 -8 -3 -19 -11 -23 -17 -6 -7 -7 -4 -3 7 3 10 0 17 -7 17 -8 0
-6 4 3 10 19 12 23 12 15 0z m-1725 -10 c0 -5 -5 -10 -11 -10 -5 0 -7 5 -4 10
3 6 8 10 11 10 2 0 4 -4 4 -10z m1140 -10 c-26 -22 -40 -26 -40 -9 0 5 5 7 10
4 6 -3 13 1 16 9 3 9 13 16 22 16 11 0 9 -5 -8 -20z m658 -18 c-6 -7 -14 -9
-17 -5 -4 4 -10 11 -14 14 -5 4 3 6 16 5 20 -1 23 -4 15 -14z m-1743 -2 c3 -5
1 -10 -4 -10 -6 0 -11 5 -11 10 0 6 2 10 4 10 3 0 8 -4 11 -10z m1285 -13 c0
-2 -10 -12 -22 -23 l-23 -19 19 23 c18 21 26 27 26 19z m-470 -33 c0 -3 -9 -2
-20 1 -13 4 -20 2 -20 -6 0 -10 -3 -10 -12 -1 -10 10 -10 15 2 22 13 8 50 -4
50 -16z m874 11 c-4 -8 -7 -15 -9 -15 -2 0 -5 7 -9 15 -3 9 0 15 9 15 9 0 12
-6 9 -15z m-1619 -61 c-5 -27 -10 -34 -23 -30 -9 3 -50 2 -89 -2 -73 -8 -79
-7 -65 14 8 13 42 15 42 2 0 -5 8 -4 18 1 18 10 60 19 95 20 12 1 17 10 18 34
1 18 3 24 6 14 3 -11 2 -35 -2 -53z m579 41 c9 -14 15 -25 13 -25 -2 0 -14 11
-27 25 -13 14 -19 25 -13 25 6 0 18 -11 27 -25z m1196 -10 c0 -5 -5 -3 -10 5
-5 8 -10 20 -10 25 0 6 5 3 10 -5 5 -8 10 -19 10 -25z m-1596 6 c3 -5 -3 -11
-15 -14 -16 -4 -18 -3 -8 9 13 16 16 17 23 5z m604 -15 c-7 -8 -17 -12 -22 -9
-4 3 -2 9 5 14 22 13 31 11 17 -5z m374 -8 c-7 -7 -12 -8 -12 -2 0 14 12 26
19 19 2 -3 -1 -11 -7 -17z m260 0 c-7 -7 -12 -8 -12 -2 0 14 12 26 19 19 2 -3
-1 -11 -7 -17z m313 12 c3 -5 1 -10 -4 -10 -6 0 -11 5 -11 10 0 6 2 10 4 10 3
0 8 -4 11 -10z m-1845 -10 c0 -5 -2 -10 -4 -10 -3 0 -8 5 -11 10 -3 6 -1 10 4
10 6 0 11 -4 11 -10z m766 -5 c-4 -24 -16 -30 -16 -7 0 12 4 22 9 22 5 0 8 -7
7 -15z m-609 -11 c-3 -3 -12 -4 -19 -1 -8 3 -5 6 6 6 11 1 17 -2 13 -5z m156
-19 c15 -8 27 -10 27 -5 0 4 7 10 15 14 19 7 19 1 -1 -19 -10 -10 -20 -12 -28
-7 -6 5 -26 9 -44 9 -19 0 -37 4 -40 10 -4 5 -14 13 -22 16 -8 4 3 4 25 1 22
-4 52 -12 68 -19z m787 -16 c0 -6 -4 -7 -10 -4 -5 3 -10 11 -10 16 0 6 5 7 10
4 6 -3 10 -11 10 -16z m-345 1 c3 -5 -1 -20 -9 -32 -16 -22 -16 -22 -16 10 0
31 12 42 25 22z m225 -10 c0 -5 -8 -10 -17 -10 -15 0 -16 2 -3 10 19 12 20 12
20 0z m440 -15 c-7 -8 -17 -15 -23 -15 -5 0 -2 9 8 20 21 23 35 19 15 -5z
m-1010 6 c0 -5 3 -23 6 -40 8 -37 -6 -41 -23 -6 -7 16 -7 25 -1 25 6 0 8 7 4
15 -3 8 -1 15 4 15 6 0 10 -4 10 -9z m-125 -30 c10 -20 12 -32 4 -36 -6 -4
-13 -4 -16 -1 -4 3 -1 6 6 6 7 0 9 5 6 10 -4 6 -10 8 -15 5 -10 -6 -22 23 -14
36 8 14 12 11 29 -20z m219 13 c3 -8 2 -12 -4 -9 -6 3 -10 10 -10 16 0 14 7
11 14 -7z m296 3 c0 -13 24 -29 60 -40 8 -3 -2 -6 -22 -6 -25 -1 -37 3 -35 11
1 7 -8 13 -21 14 -30 2 -40 13 -22 24 22 14 40 12 40 -3z m-614 -4 c-10 -11
-37 -12 -30 -2 3 5 12 9 21 9 9 0 13 -3 9 -7z m-78 -10 c-10 -2 -28 -2 -40 0
-13 2 -5 4 17 4 22 1 32 -1 23 -4z m931 -158 c0 -5 -4 -2 -10 8 -5 9 -18 17
-27 17 -14 0 -15 2 -3 9 15 10 40 -12 40 -34z m498 23 c6 15 73 16 73 1 0 -5
-4 -8 -10 -4 -5 3 -26 -1 -46 -10 -46 -19 -44 -19 -44 8 0 18 2 19 11 7 8 -11
12 -12 16 -2z"/>
<path d="M2780 1874 l0 -166 -31 27 c-37 30 -50 26 -20 -6 12 -13 21 -26 21
-31 0 -16 -17 -7 -51 28 -18 20 -43 41 -54 46 -11 6 7 -14 39 -45 33 -31 63
-54 68 -51 4 3 8 -1 8 -10 0 -8 6 -17 13 -19 9 -4 8 -6 -2 -6 -9 -1 -10 -5 -3
-13 5 -7 12 -24 15 -38 2 -14 5 61 6 166 0 105 4 212 7 238 5 31 3 46 -5 46
-8 0 -11 -49 -11 -166z"/>
<path d="M2322 2019 c2 -7 10 -15 17 -17 8 -3 12 1 9 9 -2 7 -10 15 -17 17 -8
3 -12 -1 -9 -9z"/>
<path d="M2518 1908 c7 -7 12 -20 12 -29 0 -9 7 -22 15 -29 13 -11 15 -8 15
15 0 15 -8 34 -17 41 -22 17 -41 18 -25 2z"/>
<path d="M2492 1894 c10 -10 20 -15 24 -12 3 4 -5 12 -18 18 -22 12 -22 12 -6
-6z"/>
<path d="M23 1795 c0 -33 2 -45 4 -27 2 18 2 45 0 60 -2 15 -4 0 -4 -33z"/>
<path d="M522 1715 c0 -16 2 -22 5 -12 2 9 2 23 0 30 -3 6 -5 -1 -5 -18z"/>
<path d="M22 1675 c0 -16 2 -22 5 -12 2 9 2 23 0 30 -3 6 -5 -1 -5 -18z"/>
<path d="M3065 1640 c-3 -5 -1 -10 4 -10 6 0 11 5 11 10 0 6 -2 10 -4 10 -3 0
-8 -4 -11 -10z"/>
<path d="M3042 1615 c0 -16 2 -22 5 -12 2 9 2 23 0 30 -3 6 -5 -1 -5 -18z"/>
<path d="M2771 1384 c0 -11 3 -14 6 -6 3 7 2 16 -1 19 -3 4 -6 -2 -5 -13z"/>
<path d="M3032 1370 c0 -14 2 -19 5 -12 2 6 2 18 0 25 -3 6 -5 1 -5 -13z"/>
<path d="M640 1369 c0 -5 5 -7 10 -4 6 3 10 8 10 11 0 2 -4 4 -10 4 -5 0 -10
-5 -10 -11z"/>
<path d="M626 1335 c-3 -9 -6 -22 -5 -28 0 -7 5 -1 10 12 5 13 8 26 5 28 -2 2
-6 -3 -10 -12z"/>
<path d="M2774 1215 c0 -71 1 -99 3 -62 2 37 2 96 0 130 -2 34 -3 4 -3 -68z"/>
<path d="M610 1288 c0 -3 -11 -50 -25 -104 -14 -53 -23 -100 -20 -102 2 -2 7
9 11 24 3 16 15 62 26 103 10 40 16 76 13 79 -3 3 -5 3 -5 0z"/>
<path d="M1 1218 c-1 -27 4 -48 9 -48 12 0 12 34 0 70 -7 20 -8 16 -9 -22z"/>
<path d="M3032 1240 c0 -14 2 -19 5 -12 2 6 2 18 0 25 -3 6 -5 1 -5 -13z"/>
<path d="M0 1059 c0 -64 4 -98 10 -94 13 8 13 195 0 195 -6 0 -10 -40 -10
-101z"/>
<path d="M3031 1024 c0 -11 3 -14 6 -6 3 7 2 16 -1 19 -3 4 -6 -2 -5 -13z"/>
<path d="M3066 1031 c-4 -7 -5 -15 -2 -18 9 -9 19 4 14 18 -4 11 -6 11 -12 0z"/>
<path d="M155 1017 c-11 -7 -22 -15 -25 -19 -3 -3 -17 -9 -32 -13 -15 -4 -32
-13 -39 -21 -6 -8 -15 -11 -20 -8 -5 3 -9 0 -9 -6 0 -6 -5 -8 -12 -4 -7 4 -8
3 -4 -4 5 -8 13 -9 25 -3 25 14 79 10 85 -6 3 -7 0 -13 -7 -13 -7 0 -19 -21
-27 -47 -7 -26 -26 -60 -42 -75 -16 -15 -23 -28 -16 -28 7 0 2 -7 -10 -16 -52
-36 -7 -47 57 -13 31 16 43 30 51 57 15 55 12 90 -7 101 -17 10 -17 10 1 11
14 0 17 5 12 24 -4 16 0 29 13 40 14 13 37 59 28 55 -1 0 -11 -6 -22 -12z
m-59 -233 c-3 -9 -6 -18 -6 -20 0 -3 -6 1 -14 8 -10 9 -11 15 -2 20 19 13 28
9 22 -8z"/>
<path d="M3042 920 c0 -19 2 -27 5 -17 2 9 2 25 0 35 -3 9 -5 1 -5 -18z"/>
<path d="M651 910 c-2 -8 -3 -28 -2 -45 2 -29 1 -29 -14 -11 -14 19 -15 18
-15 -11 0 -18 5 -35 10 -38 6 -3 10 0 10 9 0 8 5 16 11 18 6 2 9 22 6 48 -2
25 -5 38 -6 30z"/>
<path d="M551 824 c0 -11 3 -14 6 -6 3 7 2 16 -1 19 -3 4 -6 -2 -5 -13z"/>
<path d="M3096 818 c-7 -35 -4 -58 8 -58 7 0 10 15 8 40 -5 45 -9 51 -16 18z"/>
<path d="M441 754 c0 -11 3 -14 6 -6 3 7 2 16 -1 19 -3 4 -6 -2 -5 -13z"/>
<path d="M900 759 c0 -5 5 -7 10 -4 6 3 10 8 10 11 0 2 -4 4 -10 4 -5 0 -10
-5 -10 -11z"/>
<path d="M681 751 c-8 -5 -11 -16 -8 -25 4 -9 2 -16 -2 -16 -5 0 -12 6 -14 13
-3 6 -6 2 -6 -10 -1 -13 4 -23 9 -23 6 0 10 -18 10 -40 0 -33 3 -40 20 -40 16
0 19 6 18 35 -1 19 2 38 5 42 4 3 7 -2 7 -12 0 -18 1 -18 16 1 8 10 13 13 9 6
-3 -6 1 -15 9 -18 9 -3 13 -10 10 -15 -3 -5 -9 -7 -14 -4 -5 3 -11 1 -15 -5
-3 -5 1 -10 10 -10 9 0 13 -4 10 -10 -3 -5 3 -10 14 -10 14 0 21 6 21 19 0 11
7 27 16 35 14 15 14 16 0 16 -11 0 -16 9 -16 26 0 24 3 26 30 22 19 -3 29 -1
27 6 -2 6 -24 11 -48 12 -24 1 -58 4 -74 8 -17 3 -36 2 -44 -3z"/>
<path d="M897 733 c-4 -3 -7 -13 -7 -22 1 -13 3 -13 11 2 11 19 8 33 -4 20z"/>
<path d="M480 700 c-13 -8 -13 -10 2 -10 9 0 20 5 23 10 8 13 -5 13 -25 0z"/>
<path d="M586 691 c-3 -5 1 -11 9 -15 8 -3 15 -1 15 4 0 13 -18 22 -24 11z"/>
<path d="M537 683 c-2 -5 -1 -19 4 -33 7 -23 7 -23 8 8 1 31 -3 40 -12 25z"/>
<path d="M390 670 c0 -5 7 -7 15 -4 8 4 15 8 15 10 0 2 -7 4 -15 4 -8 0 -15
-4 -15 -10z"/>
<path d="M836 668 c7 -10 34 -10 34 0 0 4 -9 8 -19 8 -11 0 -17 -4 -15 -8z"/>
<path d="M468 663 c-15 -4 -16 -6 -1 -23 19 -22 33 -17 33 11 0 19 -2 20 -32
12z"/>
<path d="M593 640 c1 -11 7 -20 14 -20 7 0 13 9 13 20 0 11 -6 20 -14 20 -9 0
-14 -9 -13 -20z"/>
<path d="M390 640 c0 -9 31 -30 44 -30 4 0 1 9 -6 20 -13 21 -38 27 -38 10z"/>
<path d="M300 620 c-20 -6 -21 -8 -5 -8 11 0 29 3 40 8 25 11 -1 11 -35 0z"/>
<path d="M815 620 c-3 -5 1 -10 9 -10 9 0 16 5 16 10 0 6 -4 10 -9 10 -6 0
-13 -4 -16 -10z"/>
<path d="M875 620 c-3 -5 1 -10 10 -10 9 0 13 5 10 10 -3 6 -8 10 -10 10 -2 0
-7 -4 -10 -10z"/>
<path d="M2315 620 c-18 -8 -17 -9 8 -9 15 -1 27 4 27 9 0 12 -8 12 -35 0z"/>
</g>
</svg>
